# xmcd
#
# Track frame offsets: 
#        150
#        19050
#        35597
#        53557
#        73795
#        88450
#        110490
#        128545
#        139375
#        163365
#
# Disc length: 2481 seconds
#
# Revision: 0
# Processed by: cddbd v1.5.2PL0 Copyright (c) Steve Scherf et al.
# Submitted via: ExactAudioCopy v0.99pb4
#
DISCID=9109af0a
DTITLE=Jordal Express - Jordal Express
DYEAR=1993
DGENRE=Blues
TTITLE0=Grip min hånd
TTITLE1=Frøken sorgenfri
TTITLE2=Tilstand
TTITLE3=Maske av kubisk form
TTITLE4=Et øyeblikks frihet
TTITLE5=Til deg
TTITLE6=Et gammelt spøkelse
TTITLE7=Hei rus
TTITLE8=Sang til en søster
TTITLE9=Hvor finnes den Gud?
EXTD=
EXTT0=
EXTT1=
EXTT2=
EXTT3=
EXTT4=
EXTT5=
EXTT6=
EXTT7=
EXTT8=
EXTT9=
PLAYORDER=
